<svg xmlns="http://www.w3.org/2000/svg" viewBox="0 0 60 60"><defs><style>.cls-1{fill:#75e1d5;}.cls-1,.cls-2,.cls-3{opacity:0.82;}.cls-2{fill:#e23dcb;}.cls-3{fill:#0b4fae;}</style></defs><g id="Logo"><path class="cls-1" d="M12.4.2c8.72,0,10,7.43,17.6,7.43C37.24,7.63,38.88.2,47.6.2A12.26,12.26,0,0,1,59.78,12.38a13.79,13.79,0,0,1-4.44,10.2L40.86,37.06S36.58,42.32,30,42.32s-10.86-5.26-10.86-5.26L3.68,21.26A14,14,0,0,1,.22,12.38C.22,7.11,4.33.2,12.4.2Z"/><path class="cls-2" d="M47.6,59.8c-8.72,0-10-7.43-17.6-7.43-7.24,0-8.88,7.43-17.6,7.43A12.26,12.26,0,0,1,.22,47.62a13.79,13.79,0,0,1,4.44-10.2L19.14,22.94S23.42,17.68,30,17.68s10.86,5.26,10.86,5.26l15.46,15.8a14,14,0,0,1,3.46,8.88C59.78,52.89,55.67,59.8,47.6,59.8Z"/><path class="cls-3" d="M40.86,22.94S36.58,17.68,30,17.68s-10.86,5.26-10.86,5.26l-7,7,7,7.13S23.42,42.32,30,42.32s10.86-5.26,10.86-5.26l7-7Z"/></g></svg>