<svg xmlns="http://www.w3.org/2000/svg" viewBox="0 0 216 60"><defs><style>.cls-1{fill:#0b2c60;}.cls-2{fill:#75e1d5;}.cls-2,.cls-3,.cls-4{opacity:0.82;}.cls-3{fill:#e23dcb;}.cls-4{fill:#0b4fae;}</style></defs><g id="Logo"><path class="cls-1" d="M75.08,44.77V14.32h10a30.53,30.53,0,0,1,7,.75,15.28,15.28,0,0,1,5.61,2.51,11.72,11.72,0,0,1,3.74,4.69,17.58,17.58,0,0,1,1.34,7.27,17.57,17.57,0,0,1-1.34,7.3,11.8,11.8,0,0,1-3.74,4.67A15.28,15.28,0,0,1,92.06,44a30.53,30.53,0,0,1-7,.75Zm7.2-6.06h3A21.84,21.84,0,0,0,89,38.39a8.55,8.55,0,0,0,3.23-1.25,6.31,6.31,0,0,0,2.26-2.76,11.91,11.91,0,0,0,.82-4.84,12,12,0,0,0-.82-4.85,6.21,6.21,0,0,0-2.26-2.78A8.93,8.93,0,0,0,89,20.63a20,20,0,0,0-3.76-.34h-3Z"/><path class="cls-1" d="M118.57,45.32a8.54,8.54,0,0,1-4.72-1.12,6,6,0,0,1-2.41-3.26,16.73,16.73,0,0,1-.71-5.19V22.16h6.93V34.79c0,2.07.31,3.44.94,4.12a3.89,3.89,0,0,0,5.6-.34,8.17,8.17,0,0,0,.94-4.51V22.16h7V44.77h-6l-1-3.19a8.46,8.46,0,0,1-2.49,2.71A7,7,0,0,1,118.57,45.32Z"/><path class="cls-1" d="M154.64,45.32a9.46,9.46,0,0,1-3.81-.87,6.49,6.49,0,0,1-3.08-2.73l-.87,3.05h-6.06V14.32h6.93V25.26a6.85,6.85,0,0,1,3.08-2.8,8.83,8.83,0,0,1,3.81-.94,9.28,9.28,0,0,1,8.7,5.45,14.31,14.31,0,0,1,1.28,6.31,14.93,14.93,0,0,1-1.28,6.41,9.76,9.76,0,0,1-3.53,4.17A9.33,9.33,0,0,1,154.64,45.32Zm-2.19-5.38a4.44,4.44,0,0,0,3.48-1.76,7.36,7.36,0,0,0,1.49-4.9,6.85,6.85,0,0,0-1.49-4.74,4.56,4.56,0,0,0-3.48-1.64,4.76,4.76,0,0,0-3.54,1.53c-1,1-1.48,2.68-1.48,5s.5,4,1.48,5A4.81,4.81,0,0,0,152.45,39.94Z"/><path class="cls-1" d="M183.31,45.32a13.93,13.93,0,0,1-6.45-1.44,10.49,10.49,0,0,1-4.38-4.12,12.53,12.53,0,0,1-1.57-6.43A11.22,11.22,0,0,1,177,23a12.75,12.75,0,0,1,6-1.46,11.36,11.36,0,0,1,6.4,1.76,11,11,0,0,1,4,4.83,15.17,15.17,0,0,1,1.14,7.09H177.89a4.62,4.62,0,0,0,1.75,3.55,5.61,5.61,0,0,0,3.49,1.19,7.25,7.25,0,0,0,2.76-.48,4.78,4.78,0,0,0,1.8-1.21l5.51,2a10.8,10.8,0,0,1-4.44,3.83A12.88,12.88,0,0,1,183.31,45.32ZM177.89,31.1h10.3a4,4,0,0,0-1.5-3.31,5.59,5.59,0,0,0-3.47-1.12,6,6,0,0,0-3.49,1A4.59,4.59,0,0,0,177.89,31.1Z"/><path class="cls-1" d="M202,44.77V22.16h5.47l1.24,4.15a7.2,7.2,0,0,1,2.87-3.83,7.63,7.63,0,0,1,4.42-1v6.93a7.65,7.65,0,0,0-1-.11c-.27,0-.58,0-.91,0a5.63,5.63,0,0,0-3.85,1.19,4.91,4.91,0,0,0-1.35,3.87v11.4Z"/><path class="cls-2" d="M12.25.05c8.71,0,10,7.41,17.59,7.41,7.23,0,8.88-7.41,17.59-7.41A12.24,12.24,0,0,1,59.59,12.21,13.75,13.75,0,0,1,55.15,22.4L40.69,36.87s-4.28,5.26-10.85,5.26S19,36.87,19,36.87L3.54,21.09A14,14,0,0,1,.09,12.21C.09,7,4.2.05,12.25.05Z"/><path class="cls-3" d="M47.43,59.59c-8.71,0-10-7.42-17.59-7.42-7.23,0-8.88,7.42-17.59,7.42A12.24,12.24,0,0,1,.09,47.43a13.79,13.79,0,0,1,4.44-10.2L19,22.77s4.27-5.26,10.85-5.26,10.85,5.26,10.85,5.26L56.14,38.55a14,14,0,0,1,3.45,8.88C59.59,52.69,55.48,59.59,47.43,59.59Z"/><path class="cls-4" d="M40.69,22.77s-4.28-5.26-10.85-5.26S19,22.77,19,22.77l-7,7,7,7.13s4.27,5.26,10.85,5.26,10.85-5.26,10.85-5.26l7-7Z"/></g></svg>